<?xml version="1.0" standalone="no"?>
<!DOCTYPE svg PUBLIC "-//W3C//DTD SVG 20010904//EN"
 "http://www.w3.org/TR/2001/REC-SVG-20010904/DTD/svg10.dtd">
<svg version="1.0" xmlns="http://www.w3.org/2000/svg"
 width="1000.000000pt" height="1000.000000pt" viewBox="0 0 1000.000000 1000.000000"
 preserveAspectRatio="xMidYMid meet">

<g transform="translate(0.000000,1000.000000) scale(0.100000,-0.100000)"
fill="#000000" stroke="none">
<path d="M4571 9632 c-1 -9 -8 -11 -22 -7 -14 5 -19 3 -15 -3 8 -13 -26 -25
-47 -17 -8 4 -29 -1 -46 -10 -18 -9 -35 -14 -40 -11 -29 18 -186 -74 -279
-163 -20 -20 -41 -35 -47 -34 -9 2 -28 -23 -65 -87 -18 -31 -92 -123 -102
-128 -5 -2 -8 -8 -8 -13 0 -11 -4 -16 -49 -67 -19 -23 -30 -30 -33 -20 -5 14
-54 -84 -64 -129 -11 -54 -15 -60 -25 -38 -6 14 -7 10 -3 -15 3 -19 15 -55 26
-79 l21 -44 -24 -18 c-13 -10 -32 -19 -42 -19 -10 0 -16 -4 -13 -8 3 -5 -28
-25 -67 -45 -93 -49 -158 -94 -220 -154 -51 -50 -187 -208 -187 -217 0 -3 -16
-28 -35 -55 -44 -61 -161 -295 -181 -361 -17 -58 -26 -65 -56 -49 l-23 12 24
-26 c24 -26 24 -27 5 -54 -10 -15 -19 -45 -19 -65 -1 -43 12 -52 17 -11 2 14
9 28 16 31 9 3 12 -14 12 -62 0 -46 -4 -66 -12 -66 -10 0 -10 -2 -1 -8 13 -8
84 -138 81 -150 0 -4 2 -16 7 -27 4 -11 14 -34 21 -52 7 -17 10 -40 7 -51 -5
-21 32 -257 47 -297 l9 -24 31 30 c41 42 61 35 77 -26 15 -58 16 -75 4 -56
-13 20 -44 6 -64 -29 -15 -25 -17 -42 -11 -98 5 -37 7 -101 6 -142 -1 -42 4
-95 12 -120 l14 -45 6 35 c18 101 21 178 10 235 -14 69 -10 102 18 129 23 21
39 8 31 -24 -3 -10 0 -21 6 -24 6 -4 11 -16 11 -27 0 -10 7 -19 15 -19 8 0 15
7 15 15 0 8 4 15 9 15 5 0 17 3 27 7 14 5 16 2 10 -28 -3 -19 -8 -62 -10 -97
-1 -34 -6 -65 -9 -69 -4 -3 2 -13 14 -21 18 -12 19 -21 14 -67 -8 -60 1 -99
20 -92 9 4 14 -14 19 -66 7 -70 28 -123 45 -112 5 2 19 -10 32 -29 12 -18 31
-39 41 -45 15 -9 19 -7 24 13 3 13 3 55 0 92 -3 38 -8 134 -12 214 -6 140 -5
152 31 340 22 117 35 210 32 233 -6 42 -30 75 -64 88 -14 5 -23 17 -23 31 0
21 0 21 -15 2 -14 -18 -14 -18 -15 9 0 15 9 35 20 44 11 10 20 23 20 30 0 12
36 25 108 39 35 7 38 13 47 99 7 66 38 182 62 232 10 21 12 36 5 48 -7 13 -4
23 9 36 11 11 19 28 19 38 0 11 4 22 10 26 5 3 7 12 4 20 -4 8 1 18 10 21 13
5 14 9 5 20 -7 9 -8 14 -1 14 5 0 8 9 5 20 -4 15 0 20 13 20 14 0 16 2 6 9
-11 7 -11 9 2 14 9 4 16 15 16 26 0 11 8 27 18 37 9 10 18 21 18 26 1 4 2 9 4
11 6 8 7 36 0 32 -12 -8 -19 32 -7 44 8 8 7 11 -2 11 -9 0 -5 11 11 33 39 51
59 97 43 97 -19 0 10 56 36 70 10 6 19 16 19 23 0 7 9 18 20 25 12 7 18 16 16
21 -3 4 6 13 20 20 32 14 28 43 -6 51 -24 6 -24 6 -3 12 12 3 26 1 32 -5 8 -8
11 -7 11 2 0 7 4 10 10 6 5 -3 21 -3 35 1 19 5 23 10 15 18 -7 7 4 14 42 24
29 8 67 15 83 15 17 1 33 5 36 10 3 4 26 3 51 -3 46 -12 120 -1 133 20 4 6 20
4 41 -5 30 -12 36 -13 40 0 5 11 11 12 24 5 24 -13 33 -13 25 0 -9 14 43 24
59 11 7 -6 32 -13 55 -15 38 -4 41 -3 24 10 -16 12 -15 13 12 5 56 -17 115
-20 115 -6 0 15 22 25 55 25 13 0 25 6 27 12 4 10 10 10 30 1 23 -10 25 -10
21 8 -8 29 3 23 26 -17 12 -19 18 -40 15 -45 -3 -6 2 -19 11 -29 10 -11 13
-20 6 -24 -11 -7 -4 -64 11 -83 5 -7 7 -17 3 -23 -5 -8 1 -10 15 -8 30 4 39
-22 10 -29 -15 -4 -18 -8 -9 -14 8 -4 18 -1 25 9 10 14 13 13 23 -6 6 -12 21
-22 31 -22 11 0 20 -4 20 -8 0 -13 82 -68 112 -75 17 -5 28 -3 31 6 3 9 7 9
20 -2 15 -12 17 -11 17 3 0 22 17 20 29 -3 6 -10 31 -24 56 -31 26 -7 52 -18
59 -24 42 -38 58 -47 92 -52 60 -7 68 -9 82 -17 7 -5 12 -3 12 3 0 7 6 10 13
7 6 -2 11 -9 10 -15 -1 -5 18 -13 42 -16 25 -4 47 -11 50 -16 3 -5 24 -14 46
-20 22 -6 43 -18 46 -26 3 -7 10 -14 16 -14 6 0 18 -7 27 -15 9 -8 27 -16 40
-17 29 -4 109 -74 109 -96 0 -10 4 -34 9 -54 6 -21 8 -38 5 -38 -2 0 3 -10 11
-22 11 -15 12 -26 5 -39 -8 -15 -4 -21 21 -34 30 -16 43 -39 15 -29 -8 4 -15
10 -15 16 0 5 -5 6 -11 2 -7 -4 -1 -14 16 -28 22 -17 27 -31 30 -76 2 -30 17
-115 34 -189 17 -74 29 -137 26 -139 -3 -3 -31 2 -62 11 -32 9 -84 24 -115 33
-32 8 -60 20 -63 25 -4 5 -11 9 -16 9 -6 0 -7 -4 -4 -10 11 -18 -6 -10 -28 13
-42 44 -94 77 -123 77 -16 1 -45 7 -64 14 -71 27 -76 28 -50 11 l25 -16 -25 7
c-14 4 -28 12 -33 19 -4 7 -19 12 -35 10 -15 -1 -65 1 -112 5 -106 10 -176 -2
-186 -33 l-7 -21 -17 21 c-17 21 -17 21 -36 -14 -18 -35 -19 -35 -25 -12 -5
17 -7 19 -8 6 -1 -10 -5 -16 -10 -13 -11 7 -23 -22 -15 -35 3 -5 0 -9 -6 -9
-17 0 -37 -23 -32 -38 2 -7 -2 -11 -8 -10 -7 2 -15 -3 -17 -11 -4 -9 0 -11 15
-7 11 4 23 3 26 -3 3 -5 -10 -11 -30 -13 -19 -2 -37 0 -40 4 -10 15 -36 8 -41
-12 -5 -18 -19 -22 -58 -20 -10 1 -35 -28 -35 -39 0 -6 -7 -11 -15 -11 -8 0
-15 -4 -15 -8 0 -5 -18 -15 -40 -22 -31 -10 -39 -17 -34 -29 16 -41 14 -52
-24 -103 -68 -91 -66 -139 3 -68 48 49 80 53 88 11 4 -18 21 -41 43 -58 119
-90 140 -124 184 -298 11 -44 30 -108 41 -142 12 -36 20 -77 17 -98 -4 -34 -2
-37 47 -65 83 -48 121 -118 95 -179 -13 -32 -40 -49 -40 -26 0 8 -4 16 -10 16
-13 2 -21 4 -40 12 -21 8 -92 21 -108 20 -7 -1 -11 5 -8 12 3 10 -8 16 -40 21
-43 6 -50 4 -106 -36 -56 -39 -61 -41 -89 -29 -38 15 -56 0 -63 -54 -4 -32 -2
-37 15 -37 11 0 18 -4 15 -8 -7 -12 -134 -13 -141 -1 -9 14 -42 -7 -48 -30 -3
-11 0 -22 6 -24 6 -2 7 -9 3 -15 -5 -9 -11 -8 -22 3 -9 8 -20 15 -25 15 -5 0
0 -9 10 -19 12 -12 27 -17 40 -14 29 7 28 -20 -1 -48 -20 -19 -20 -21 -4 -15
15 5 17 4 8 -7 -9 -10 -8 -17 0 -25 17 -17 48 -15 48 3 0 21 14 19 36 -6 34
-38 90 -60 144 -57 28 2 52 8 55 16 6 17 64 15 71 -2 3 -8 12 -12 20 -9 8 3
20 1 27 -4 21 -17 57 -22 89 -12 22 6 34 5 39 -2 3 -6 18 -12 33 -12 17 -2 26
-8 26 -19 0 -23 -46 -24 -76 -3 -17 11 -53 14 -168 12 -81 -1 -146 -6 -146
-11 0 -5 -7 -18 -17 -28 -16 -17 -17 -17 -36 -1 -11 10 -17 12 -13 6 4 -7 2
-22 -4 -33 l-11 -21 -18 22 -17 21 -17 -26 c-14 -20 -15 -27 -5 -30 77 -25
139 -36 207 -36 88 0 84 2 106 -65 5 -18 8 -16 21 12 21 43 57 75 77 67 19 -7
32 -79 23 -129 -11 -57 -91 -92 -103 -45 -6 23 -23 27 -23 6 0 -18 -42 -33
-113 -40 -46 -5 -59 -3 -63 9 -5 12 -8 12 -19 1 -10 -10 -33 -12 -87 -8 -40 3
-75 8 -78 11 -3 3 -20 6 -38 7 -18 1 -40 9 -50 18 -10 9 -32 16 -48 16 -33 0
-69 27 -79 60 -4 12 -13 19 -20 16 -24 -9 -47 19 -49 59 -1 37 0 39 34 43 19
2 60 4 90 3 44 -1 51 1 37 10 -11 6 -71 11 -141 11 -86 0 -128 4 -140 14 -10
7 -26 36 -35 64 -17 51 -37 68 -35 30 0 -11 -5 -20 -13 -20 -7 0 -13 -5 -13
-11 0 -7 -11 -9 -30 -6 -17 4 -32 2 -36 -5 -5 -8 -1 -9 10 -5 14 6 17 3 12 -9
-3 -8 -6 -18 -6 -20 0 -3 -5 -2 -11 1 -7 5 -8 -7 -5 -36 2 -23 1 -51 -5 -60
-12 -24 0 -79 18 -79 8 0 11 -5 8 -10 -3 -6 3 -22 14 -37 12 -14 19 -29 16
-32 -4 -3 -11 1 -16 9 -8 12 -9 10 -4 -7 3 -12 1 -24 -4 -27 -6 -4 -8 -13 -4
-21 3 -9 -1 -15 -8 -16 -8 0 -3 -5 10 -10 25 -10 46 5 34 23 -6 11 15 38 29
38 7 0 6 -5 -1 -13 -6 -8 -8 -17 -5 -20 10 -10 45 13 38 24 -3 6 3 5 14 -2 12
-7 25 -10 29 -6 4 5 1 12 -6 16 -10 6 -10 10 -1 16 6 4 9 13 6 21 -3 7 -1 16
4 19 5 3 7 12 3 20 -10 28 23 15 75 -27 94 -78 110 -88 136 -88 15 0 35 5 45
12 15 9 26 9 47 0 29 -14 47 -7 24 9 -12 9 -12 10 3 5 10 -3 24 -6 29 -6 6 0
9 -2 6 -5 -6 -6 50 -64 78 -81 11 -6 23 -25 28 -42 8 -29 13 -31 65 -37 62 -7
111 -23 111 -36 0 -12 -46 -23 -65 -15 -8 3 -15 1 -15 -4 0 -6 -7 -10 -15 -10
-8 0 -15 -4 -15 -9 0 -14 -54 -10 -71 6 -17 15 -69 9 -69 -8 0 -12 17 -11 25
1 7 11 35 2 35 -11 0 -4 -7 -6 -15 -3 -10 4 -15 0 -16 -12 0 -11 -1 -34 -2
-52 -1 -17 1 -32 6 -32 4 0 7 7 7 15 0 8 5 15 11 15 5 0 8 -4 4 -9 -3 -6 3
-15 14 -20 24 -13 34 -14 27 -3 -6 10 60 9 70 -1 4 -4 13 -2 21 4 8 7 13 8 13
1 0 -13 -26 -23 -44 -16 -7 3 -16 -2 -19 -10 -4 -10 -1 -16 7 -16 7 0 13 -6
13 -14 0 -15 -27 -10 -40 8 -4 6 -4 -2 -1 -19 7 -27 6 -29 -9 -17 -13 11 -19
11 -36 0 -27 -17 -28 -68 -2 -88 11 -7 18 -17 15 -22 -9 -13 4 -9 20 8 15 14
16 14 16 -4 0 -11 -6 -23 -12 -25 -8 -3 -5 -6 5 -6 14 -1 17 -6 12 -21 -4 -13
-2 -20 7 -20 7 0 5 -5 -6 -12 -16 -9 -23 -7 -39 13 -19 24 -20 24 -13 2 6 -18
3 -23 -9 -23 -14 0 -16 -6 -10 -27 3 -15 11 -30 16 -34 12 -7 -8 -25 -36 -32
-16 -3 -13 -6 14 -12 l33 -8 -30 -13 c-17 -7 -35 -22 -41 -33 -7 -13 -18 -18
-29 -15 -13 5 -14 4 -3 -4 10 -7 10 -14 2 -30 -12 -23 -2 -35 22 -26 8 3 18 1
22 -5 3 -7 0 -8 -9 -5 -9 4 -16 1 -16 -6 0 -7 -7 -10 -15 -6 -10 3 -18 -1 -23
-12 -5 -13 -8 -11 -12 12 -6 37 -40 46 -40 11 0 -13 -6 -26 -12 -29 -10 -3 -8
-9 5 -19 9 -8 17 -22 17 -31 0 -20 9 -20 32 1 17 15 18 15 18 -1 0 -9 -3 -15
-8 -12 -4 2 -16 -2 -27 -10 -22 -16 -8 -18 29 -4 21 7 26 6 26 -5 0 -8 4 -15
10 -15 5 0 7 -7 4 -15 -4 -8 -15 -15 -26 -15 -10 0 -17 -4 -13 -9 3 -5 1 -12
-5 -16 -5 -3 -10 0 -10 8 0 16 -27 30 -41 21 -5 -3 -9 0 -9 5 0 6 4 11 10 11
5 0 7 7 4 15 -5 11 -10 13 -19 5 -9 -8 -14 -7 -17 2 -4 11 -8 11 -20 0 -11 -9
-18 -10 -23 -2 -3 5 -2 10 3 10 5 0 12 9 15 21 5 19 4 19 -11 6 -48 -41 -57
-28 -12 19 16 18 26 34 23 38 -3 3 0 12 7 21 7 8 10 21 7 29 -3 8 -1 17 6 20
7 2 4 5 -7 5 -11 1 -16 -4 -13 -12 6 -16 -19 -51 -31 -43 -5 3 -9 -11 -8 -32
1 -35 -1 -37 -34 -40 -23 -2 -30 0 -22 6 11 7 10 10 -3 16 -9 3 -25 6 -36 6
-11 0 -35 16 -53 35 -19 19 -39 35 -46 35 -6 0 -8 5 -5 10 3 6 -1 10 -9 10 -8
0 -18 -4 -21 -10 -3 -5 -1 -10 4 -10 6 0 10 -6 8 -12 -1 -7 6 -12 15 -10 9 1
22 -7 28 -18 6 -11 17 -20 26 -20 8 0 19 -10 24 -22 5 -13 9 -19 9 -15 1 5 8
1 17 -7 8 -9 12 -21 8 -28 -5 -8 -2 -9 11 -5 12 5 27 -3 52 -28 18 -19 37 -34
41 -33 6 2 80 -29 124 -53 10 -5 30 -9 46 -9 15 0 33 -5 38 -10 6 -6 27 -11
48 -12 20 -1 39 -4 41 -8 2 -3 29 -5 59 -4 32 1 54 -2 50 -7 -3 -5 6 -9 20 -9
13 0 26 6 29 13 3 8 11 5 24 -11 11 -12 24 -22 27 -22 4 0 14 -6 22 -14 11
-11 11 -16 1 -19 -23 -10 28 -7 68 4 49 12 63 18 140 55 33 15 68 27 77 26 10
-2 26 1 35 7 13 8 14 10 4 11 -11 0 -9 4 5 15 26 20 43 19 42 -2 0 -10 2 -25
6 -34 4 -10 1 -23 -8 -32 -20 -19 -20 -27 -2 -27 18 0 18 -106 -1 -121 -20
-17 -16 -29 12 -29 13 0 33 10 45 22 11 12 20 18 20 14 0 -4 14 1 31 11 23 14
29 24 26 41 -5 24 17 32 27 10 5 -10 7 -10 12 0 3 6 12 12 20 12 8 0 14 5 14
10 0 6 -7 10 -15 10 -8 0 -15 9 -15 19 0 11 -4 23 -10 26 -16 10 -12 35 5 29
8 -4 12 -10 9 -15 -13 -22 15 -6 30 16 10 16 26 25 41 25 14 0 34 9 45 20 11
11 17 20 13 20 -4 0 -2 5 5 12 7 7 12 23 12 36 0 17 4 23 15 18 8 -3 15 -1 15
4 0 5 -8 11 -17 13 -17 4 -17 5 0 6 12 1 17 7 15 21 -2 10 6 26 17 35 l20 17
-20 -8 c-11 -4 -30 -8 -43 -8 l-23 -1 20 -17 c12 -9 21 -20 21 -24 0 -4 -5 -3
-12 4 -7 7 -20 12 -30 12 -12 0 -18 6 -16 18 2 10 -2 16 -10 14 -8 -1 -16 7
-19 19 -4 16 -12 20 -29 16 -13 -2 -24 -3 -24 -1 0 2 25 18 55 35 30 17 55 33
55 35 0 2 -13 1 -30 -2 -20 -4 -30 -2 -30 5 0 7 5 9 11 5 6 -3 15 -1 19 5 4 7
23 13 43 14 19 1 33 4 31 6 -2 2 2 11 8 19 7 8 13 20 14 26 0 6 6 25 13 43 9
23 17 30 29 26 14 -6 15 -4 4 9 -10 13 -9 15 12 11 18 -4 28 3 46 32 12 20 34
44 49 53 38 24 52 45 38 54 -8 5 -7 8 4 8 12 0 14 8 11 30 -5 32 -22 32 -22
-1 0 -12 -7 -19 -20 -19 -10 0 -24 -9 -30 -20 -6 -11 -15 -18 -21 -15 -14 9
-11 25 5 25 7 0 17 15 20 33 7 30 8 31 21 13 14 -19 15 -19 15 6 0 29 21 43
39 25 8 -8 11 -5 11 11 0 12 -3 22 -8 22 -4 0 -8 24 -8 54 -1 30 -4 61 -7 70
-8 20 -33 21 -40 2 -4 -9 -1 -13 6 -10 14 5 18 -25 11 -64 -3 -15 -10 -22 -19
-18 -7 2 -15 0 -17 -6 -3 -8 -10 -7 -26 1 -16 9 -27 9 -42 1 -22 -12 -44 -5
-35 11 4 5 15 9 26 9 10 0 18 5 16 11 -1 6 8 13 21 15 13 2 22 -1 22 -9 0 -7
9 -13 20 -13 24 0 26 14 3 23 -9 4 -25 15 -35 25 -10 10 -24 18 -30 18 -7 0
-5 -5 5 -11 26 -15 20 -29 -7 -16 -16 8 -21 16 -15 23 5 6 5 15 1 19 -4 5 -2
5 4 2 7 -4 29 0 50 7 22 8 35 15 30 15 -6 1 -1 7 9 15 11 8 23 12 27 10 5 -3
8 2 8 11 0 9 5 13 10 10 6 -3 10 -2 10 4 0 5 -18 12 -40 16 -22 4 -40 12 -40
18 0 7 -5 4 -11 -5 -15 -26 -26 -22 -31 12 -5 31 -2 32 50 13 6 -3 12 0 12 7
0 6 5 8 11 5 10 -7 43 25 52 48 3 9 8 9 18 0 7 -7 20 -13 28 -13 10 0 3 13
-19 35 -19 20 -40 33 -48 30 -8 -3 -12 2 -10 12 2 9 -3 18 -9 20 -7 3 -13 -2
-13 -11 0 -9 -4 -16 -10 -16 -5 0 -10 7 -10 16 0 8 -4 12 -10 9 -7 -4 -7 2 0
19 7 19 5 30 -10 48 -16 19 -19 20 -20 6 0 -10 5 -18 12 -18 9 0 9 -3 1 -11
-16 -16 -32 -3 -26 21 3 11 1 20 -5 20 -6 0 -13 -8 -15 -17 -3 -13 -5 -11 -6
6 l-1 24 -23 -21 c-13 -12 -33 -22 -45 -22 -13 0 -22 -6 -22 -15 0 -8 -5 -15
-11 -15 -7 0 -9 -10 -7 -24 3 -15 0 -27 -8 -30 -8 -3 -14 -17 -14 -31 0 -24
-17 -30 -31 -11 -4 4 -6 -4 -6 -18 0 -14 3 -26 8 -26 5 0 9 4 9 10 0 19 28 -2
32 -24 3 -15 -3 -28 -19 -39 -23 -18 -23 -17 -23 8 0 14 -4 25 -10 25 -5 0
-10 9 -10 19 0 11 -4 23 -10 26 -5 3 -10 17 -10 31 0 25 18 32 36 14 7 -7 11
-6 11 5 0 8 -4 15 -8 15 -4 0 -15 7 -24 17 -14 13 -18 14 -25 3 -7 -11 -11
-11 -24 -1 -23 19 -20 28 15 40 17 6 33 20 36 31 3 11 10 20 16 20 8 0 8 3 0
11 -15 15 -5 39 16 39 19 0 41 38 41 70 0 11 3 20 8 20 4 0 6 26 5 58 -4 76
-37 140 -122 235 -66 74 -88 118 -75 152 7 17 30 20 39 5 8 -14 48 -13 62 1 9
9 11 7 7 -8 -4 -14 3 -25 21 -37 30 -20 55 -15 55 11 0 13 3 14 12 5 7 -7 19
-12 27 -12 13 1 12 3 -3 15 -27 21 -47 63 -33 69 8 3 7 8 -3 15 -8 6 -11 11
-7 11 5 0 -1 13 -12 28 -20 28 -26 92 -9 92 5 0 7 8 4 18 -6 18 40 45 99 58
60 13 166 77 229 139 86 84 158 226 186 368 11 55 23 104 26 109 7 11 34 -18
59 -63 13 -24 32 -155 54 -364 4 -38 4 -108 -1 -155 -5 -47 -10 -129 -12 -184
-2 -64 -8 -101 -16 -106 -9 -6 -9 -10 3 -17 20 -10 11 -57 -8 -49 -23 9 -25
-6 -4 -35 16 -22 17 -27 5 -23 -9 3 -16 1 -16 -5 0 -12 20 -14 35 -3 6 4 10
26 10 50 -1 23 3 42 8 42 9 0 7 17 -8 54 -7 16 -5 17 12 7 18 -9 22 -7 27 15
4 13 10 23 14 20 5 -3 14 12 22 32 11 32 14 34 20 17 7 -19 7 -19 14 3 9 27
26 29 27 2 1 -11 3 -24 4 -30 1 -5 3 -19 4 -30 0 -11 7 -20 14 -20 19 0 34
-13 41 -36 5 -18 0 -25 -29 -38 -19 -9 -35 -21 -35 -25 0 -18 30 -32 62 -29
30 3 33 6 32 36 -2 38 16 42 59 13 34 -22 93 -14 115 16 19 25 8 126 -18 163
-11 15 -29 47 -40 71 -11 24 -32 62 -45 84 -17 29 -21 45 -14 55 8 13 10 13
18 0 5 -8 8 -17 5 -21 -2 -4 3 -12 11 -19 12 -10 16 -8 25 14 8 23 5 33 -20
68 -17 23 -33 59 -36 80 -4 21 -11 41 -15 44 -5 3 -6 10 -3 16 4 6 3 13 -2 17
-12 8 -36 62 -31 67 2 3 15 -5 29 -16 24 -18 38 -18 38 2 0 4 -8 8 -17 8 -16
0 -16 1 -1 17 16 15 20 13 66 -22 61 -46 71 -74 83 -244 4 -69 14 -179 20
-243 16 -150 8 -181 -62 -240 -54 -46 -74 -72 -64 -88 8 -13 53 10 81 42 36
39 51 79 64 173 6 50 21 140 32 200 50 275 53 307 39 356 -6 21 -24 48 -39 61
-15 13 -35 35 -44 49 -15 24 -15 27 0 43 15 15 15 16 -2 16 -24 0 -15 24 11
28 20 3 52 -30 66 -70 9 -25 27 -22 27 5 1 44 19 214 33 312 8 55 13 103 11
107 -3 4 1 10 6 13 8 5 11 56 10 148 -1 78 -1 144 0 147 1 3 3 39 5 80 2 41 3
75 4 75 6 0 6 187 0 191 -5 3 -9 44 -9 92 0 156 -58 291 -177 411 -31 31 -92
110 -136 176 -44 66 -108 153 -143 193 -34 41 -75 99 -90 129 -36 70 -147 199
-213 247 -28 20 -51 40 -51 44 0 5 -12 15 -27 23 -16 7 -44 26 -63 41 -19 16
-40 28 -47 28 -7 0 -12 5 -10 12 2 13 -46 32 -128 48 -133 26 -201 42 -225 52
-14 6 -53 10 -86 9 -50 -2 -73 3 -128 29 -36 17 -94 40 -128 50 -35 11 -88 28
-118 39 -30 11 -65 20 -77 21 -12 0 -25 5 -28 10 -3 6 -31 10 -61 10 -37 0
-56 4 -60 14 -3 8 -15 14 -27 13 -12 0 -66 5 -119 11 -122 15 -352 16 -343 2
3 -5 2 -10 -4 -10 -5 0 -12 6 -14 13 -4 9 -6 9 -6 -1z m-201 -76 c0 -7 -45
-33 -70 -40 -24 -7 -24 -7 5 18 25 21 65 35 65 22z m-117 -78 c-13 -12 -26
-18 -30 -14 -4 4 1 14 11 22 31 22 43 17 19 -8z m1272 -48 c3 -6 -1 -7 -9 -4
-18 7 -21 14 -7 14 6 0 13 -4 16 -10z m-1365 -10 c0 -5 -5 -10 -11 -10 -5 0
-7 5 -4 10 3 6 8 10 11 10 2 0 4 -4 4 -10z m1767 -126 c-3 -3 -12 -4 -19 -1
-8 3 -5 6 6 6 11 1 17 -2 13 -5z m-537 -20 c0 -2 -12 -4 -26 -4 -14 0 -23 4
-20 9 6 8 46 4 46 -5z m-1239 -125 c-5 -13 -10 -19 -10 -12 -1 15 10 45 15 40
3 -2 0 -15 -5 -28z m1819 -38 c0 -10 -26 -9 -36 2 -4 4 2 7 14 7 12 0 22 -4
22 -9z m-1489 -34 c-10 -9 -11 -8 -5 6 3 10 9 15 12 12 3 -3 0 -11 -7 -18z
m-639 -79 c-7 -7 -12 -8 -12 -2 0 14 12 26 19 19 2 -3 -1 -11 -7 -17z m-48
-64 c9 -3 16 -13 16 -21 0 -8 -4 -11 -10 -8 -5 3 -10 -1 -10 -9 0 -9 6 -16 14
-16 17 0 28 -24 20 -45 -9 -23 -41 -18 -48 8 -7 25 -8 97 -2 97 2 0 11 -3 20
-6z m2571 -144 c-3 -5 -14 -10 -23 -10 -15 0 -15 2 -2 10 20 13 33 13 25 0z
m125 -60 c11 -7 3 -10 -28 -10 -26 0 -41 4 -37 10 8 13 45 13 65 0z m-1396
-155 c11 -8 18 -17 15 -19 -2 -3 -15 4 -29 14 -14 11 -20 20 -15 19 6 0 19 -6
29 -14z m1506 1 c0 -2 -11 -11 -25 -20 -14 -9 -25 -13 -25 -8 0 5 10 14 23 20
27 13 27 13 27 8z m-2975 -105 c-18 -17 -70 -18 -60 -1 3 6 20 10 38 10 19 0
27 -4 22 -9z m432 3 c-3 -3 -12 -4 -19 -1 -8 3 -5 6 6 6 11 1 17 -2 13 -5z
m-539 -16 c-3 -7 -13 -15 -24 -17 -16 -3 -17 -1 -5 13 16 19 34 21 29 4z m34
-36 c-12 -2 -22 -8 -22 -13 0 -5 -4 -9 -10 -9 -5 0 -10 9 -10 19 0 23 29 32
49 17 12 -9 10 -12 -7 -14z m-74 -4 c-3 -7 -13 -15 -24 -17 -16 -3 -17 -1 -5
13 16 19 34 21 29 4z m21 -31 c-2 -1 -13 -9 -24 -17 -19 -14 -19 -14 -6 3 7 9
18 17 24 17 6 0 8 -1 6 -3z m-89 -36 c0 -5 -6 -14 -14 -20 -12 -10 -13 -8 -9
8 5 21 23 30 23 12z m70 -42 c-55 -44 -80 -60 -80 -51 0 10 37 45 65 60 33 18
42 13 15 -9z m2610 1 c0 -5 -2 -10 -4 -10 -3 0 -8 5 -11 10 -3 6 -1 10 4 10 6
0 11 -4 11 -10z m-2728 -22 c-7 -7 -12 -8 -12 -2 0 14 12 26 19 19 2 -3 -1
-11 -7 -17z m2825 -4 c-3 -3 -12 -4 -19 -1 -8 3 -5 6 6 6 11 1 17 -2 13 -5z
m126 -41 c-7 -2 -19 -2 -25 0 -7 3 -2 5 12 5 14 0 19 -2 13 -5z m-2983 -57 c0
-2 -8 -10 -17 -17 -16 -13 -17 -12 -4 4 13 16 21 21 21 13z m-70 -62 c-18 -21
-24 -10 -9 18 8 14 14 18 17 10 2 -7 -2 -19 -8 -28z m-80 -4 c-6 -11 -13 -20
-16 -20 -2 0 0 9 6 20 6 11 13 20 16 20 2 0 0 -9 -6 -20z m30 -67 c-11 -16
-37 -50 -57 -76 -19 -26 -38 -45 -42 -41 -3 4 0 9 7 11 6 3 12 10 12 18 0 19
73 115 88 115 9 0 7 -9 -8 -27z m340 -100 c0 -5 -8 -17 -17 -28 -14 -18 -15
-18 -9 -2 3 10 6 23 6 28 0 5 5 9 10 9 6 0 10 -3 10 -7z m3387 -139 c-3 -3
-12 -4 -19 -1 -8 3 -5 6 6 6 11 1 17 -2 13 -5z m-3437 -23 c-11 -21 -29 -36
-36 -29 -4 5 33 48 42 48 2 0 0 -9 -6 -19z m-30 -60 c0 -3 -8 -28 -18 -55 -14
-36 -21 -44 -26 -31 -5 15 -9 15 -23 4 -15 -13 -16 -11 -10 16 6 24 5 26 -3
13 -12 -19 -40 -25 -40 -8 0 6 7 10 15 10 9 0 18 7 21 15 4 8 10 13 14 10 4
-3 14 3 21 12 12 14 12 16 -1 8 -13 -7 -13 -6 -2 7 12 15 52 14 52 -1z m2847
-33 c-3 -7 -5 -2 -5 12 0 14 2 19 5 13 2 -7 2 -19 0 -25z m-8 -68 c0 -10 -3
-8 -9 5 -12 27 -12 43 0 25 5 -8 9 -22 9 -30z m-2869 -84 c-6 -20 -16 -36 -21
-36 -5 0 -2 16 6 36 8 20 15 39 15 42 0 3 3 3 6 -1 3 -3 1 -22 -6 -41z m-1
-97 c-23 -46 -50 -113 -60 -149 -9 -36 -18 -57 -18 -46 -3 53 40 170 93 253
36 56 29 28 -15 -58z m30 -13 c-9 -8 -10 -7 -5 7 3 10 7 24 7 30 1 7 3 4 6 -7
3 -10 -1 -23 -8 -30z m2421 -7 c0 -4 -7 -6 -15 -3 -8 4 -15 10 -15 15 0 4 7 6
15 3 8 -4 15 -10 15 -15z m120 -119 l25 -8 -25 0 c-14 0 -36 4 -50 8 l-25 8
25 0 c14 0 36 -4 50 -8z m89 -31 c27 -16 36 -18 43 -7 8 10 9 9 5 -3 -3 -10 6
-28 24 -45 41 -40 76 -113 90 -188 11 -57 14 -62 35 -58 22 4 22 2 13 -39 -14
-65 -49 -168 -72 -214 -45 -90 -154 -204 -201 -211 -11 -2 -50 -12 -86 -23
-45 -15 -66 -17 -71 -9 -4 6 -15 8 -24 4 -14 -5 -16 -2 -12 21 4 16 4 22 1 15
-3 -6 -9 -10 -14 -7 -10 6 -1 45 11 45 5 0 9 14 9 30 0 21 5 30 16 30 10 0 13
6 9 19 -4 13 4 29 26 51 26 25 30 34 18 41 -9 5 -10 9 -2 9 6 0 24 5 39 10 25
10 26 12 9 24 -13 9 -16 20 -11 39 6 25 4 27 -25 27 -46 0 -159 21 -159 29 0
8 83 37 152 54 43 10 50 9 70 -10 44 -42 148 -48 148 -10 0 7 -16 30 -35 51
-19 22 -35 46 -35 53 0 14 -71 69 -103 79 -12 4 -27 13 -35 20 -7 8 -17 12
-22 9 -5 -3 -12 0 -15 5 -9 14 -56 34 -74 31 -7 -1 -11 4 -9 11 3 7 -4 18 -16
25 -20 12 -20 12 6 13 14 0 28 -4 30 -8 2 -5 14 -5 28 -1 l25 7 -27 1 c-16 1
-28 5 -28 10 0 5 -10 11 -22 14 -26 4 -17 9 47 24 34 7 44 6 60 -9 16 -15 16
-18 2 -18 -9 0 -19 -5 -22 -10 -4 -7 6 -11 27 -10 60 1 73 -3 95 -27 12 -12
24 -23 27 -23 3 0 17 -5 33 -11 20 -7 24 -12 14 -18 -10 -7 -8 -11 10 -16 24
-8 50 -29 50 -42 0 -13 33 -21 54 -13 17 6 15 8 -12 14 -42 10 -42 21 -1 21
24 0 34 5 36 19 2 11 0 16 -7 12 -6 -4 -9 -2 -6 6 3 8 -2 22 -11 33 -8 11 -13
15 -10 10 6 -14 -62 -6 -71 8 -4 7 5 8 25 4 50 -10 40 16 -24 60 -92 64 -91
62 -74 63 8 0 30 -9 49 -21z m291 -7 c74 -30 79 -100 10 -145 -38 -25 -56 -23
-25 3 8 7 15 19 15 26 0 8 8 14 19 14 15 0 17 5 12 32 -7 35 -47 56 -108 57
-32 1 -33 -1 -33 -37 0 -29 5 -40 22 -47 33 -15 33 -34 1 -46 -45 -17 -57 -2
-63 82 l-5 74 65 -1 c36 -1 76 -6 90 -12z m-1079 -90 c-5 -10 -17 -25 -26 -32
-9 -7 -23 -27 -31 -43 -9 -16 -18 -26 -21 -23 -7 7 21 52 55 89 30 32 37 34
23 9z m1159 -12 c0 -5 -2 -10 -4 -10 -3 0 -8 5 -11 10 -3 6 -1 10 4 10 6 0 11
-4 11 -10z m-581 -91 c18 -11 31 -22 28 -25 -6 -6 -97 32 -97 40 0 13 37 5 69
-15z m472 -6 c12 -14 12 -16 -2 -11 -9 4 -20 -2 -28 -14 -7 -11 -20 -18 -33
-16 -31 4 -35 28 -5 28 13 0 30 7 37 15 15 19 15 19 31 -2z m-824 -36 c-6 -12
-13 -24 -14 -25 -5 -11 -63 12 -63 25 0 10 6 14 20 10 10 -3 27 1 37 8 24 18
35 9 20 -18z m-395 -70 c3 -40 1 -45 -9 -30 -14 19 -16 55 -6 93 9 28 10 23
15 -63z m438 63 c8 -5 12 -12 9 -15 -8 -8 -39 5 -39 16 0 11 11 11 30 -1z
m-364 -48 c-11 -10 -15 4 -8 28 l7 25 3 -23 c2 -13 1 -26 -2 -30z m-1841 -29
c-4 -10 -8 -24 -9 -32 -4 -20 -36 -36 -36 -17 0 29 20 66 36 66 11 0 14 -5 9
-17z m3518 10 c-7 -2 -19 -2 -25 0 -7 3 -2 5 12 5 14 0 19 -2 13 -5z m-1676
-60 c-3 -10 -5 -4 -5 12 0 17 2 24 5 18 2 -7 2 -21 0 -30z m-1877 -38 c0 -8
-4 -15 -10 -15 -5 0 -7 7 -4 15 4 8 8 15 10 15 2 0 4 -7 4 -15z m1888 -65 l-3
-35 -22 35 c-27 42 -31 69 -8 50 13 -10 15 -9 16 11 l0 24 10 -25 c6 -13 9
-40 7 -60z m122 -105 c-10 -12 -10 -18 1 -32 13 -17 13 -17 -11 -2 -36 23 -38
49 -5 49 23 0 26 -2 15 -15z m80 -25 c0 -5 -5 -10 -11 -10 -5 0 -7 5 -4 10 3
6 8 10 11 10 2 0 4 -4 4 -10z m-1910 -249 c0 -5 3 -17 7 -27 4 -11 3 -15 -4
-11 -14 9 -24 47 -12 47 5 0 9 -4 9 -9z m3116 -158 c-11 -29 -17 -6 -9 33 7
36 8 37 11 11 2 -16 1 -36 -2 -44z m-816 -123 c0 -5 -4 -10 -10 -10 -5 0 -10
5 -10 10 0 6 5 10 10 10 6 0 10 -4 10 -10z m-800 -39 c0 -9 -23 -21 -41 -21
-4 0 -6 7 -3 15 7 16 44 21 44 6z m316 -20 c-7 -11 -66 -12 -66 -2 0 4 16 8
36 9 21 2 33 -1 30 -7z m84 -306 c0 -7 8 -16 18 -18 9 -2 4 -3 -12 -1 -36 5
-38 7 -30 28 7 18 24 12 24 -9z m-40 -5 c0 -5 -5 -10 -11 -10 -5 0 -7 5 -4 10
3 6 8 10 11 10 2 0 4 -4 4 -10z m346 -107 c-10 -10 -19 5 -10 18 6 11 8 11 12
0 2 -7 1 -15 -2 -18z m-36 -9 c0 -8 -4 -14 -10 -14 -5 0 -10 -5 -10 -11 0 -5
6 -7 13 -3 7 5 5 -2 -4 -16 -21 -33 -34 -28 -33 13 0 21 5 32 15 32 7 1 13 7
11 14 -1 7 2 10 8 6 5 -3 10 -13 10 -21z m-349 -1 c4 -50 -9 -93 -26 -93 -15
0 -13 33 5 70 4 8 5 21 3 28 -3 6 0 12 6 12 6 0 12 -8 12 -17z m346 -105 c-3
-8 -6 -5 -6 6 -1 11 2 17 5 13 3 -3 4 -12 1 -19z m255 -43 c0 -5 -5 -11 -11
-13 -6 -2 -11 4 -11 13 0 9 5 15 11 13 6 -2 11 -8 11 -13z m-465 -29 c-3 -8
-3 -17 1 -21 10 -10 8 -75 -2 -75 -4 0 -5 -7 -2 -16 5 -13 2 -15 -13 -11 -13
3 -18 1 -15 -8 3 -7 -6 -24 -20 -38 -14 -14 -22 -28 -18 -33 4 -4 2 -4 -5 -1
-6 4 -18 4 -26 1 -13 -5 -13 -9 -1 -32 13 -25 12 -27 -7 -30 -20 -3 -64 26
-55 36 7 6 -20 32 -33 32 -6 0 -21 10 -32 21 l-21 21 26 25 c30 27 32 36 11
56 -12 13 -12 17 -1 27 8 6 25 12 38 13 13 1 28 8 35 17 6 8 15 12 19 8 4 -5
-1 -18 -12 -30 -15 -18 -16 -20 -1 -9 9 7 17 11 17 8 0 -2 24 8 53 23 60 33
71 35 64 16z m-248 -52 c15 -33 6 -69 -13 -52 -12 12 -17 78 -5 78 3 0 11 -12
18 -26z m31 16 c0 -5 -5 -10 -11 -10 -5 0 -7 5 -4 10 3 6 8 10 11 10 2 0 4 -4
4 -10z m670 -103 c0 -16 -2 -17 -15 -3 -8 8 -15 25 -15 37 0 22 0 22 15 3 8
-10 15 -27 15 -37z m-700 -37 c9 -16 8 -18 -5 -14 -8 4 -15 12 -15 20 0 20 7
17 20 -6z m739 -31 c-16 -10 -23 -4 -14 10 3 6 11 8 17 5 6 -4 5 -9 -3 -15z
m-857 -11 c-7 -7 -12 -8 -12 -2 0 14 12 26 19 19 2 -3 -1 -11 -7 -17z m658 -8
c0 -5 -7 -10 -16 -10 -8 0 -12 5 -9 10 3 6 10 10 16 10 5 0 9 -4 9 -10z m120
-21 c0 -11 -7 -19 -17 -20 -11 0 -13 -3 -5 -6 6 -2 12 -12 12 -20 0 -14 -2
-14 -18 0 -25 23 -35 21 -22 -2 14 -27 13 -30 -12 -41 -21 -8 -19 -9 12 -11
19 -1 27 -3 18 -6 -10 -2 -18 -9 -18 -14 0 -5 -9 -9 -20 -9 -22 0 -26 -10 -10
-26 16 -16 1 -44 -18 -37 -13 4 -14 3 -6 -6 8 -8 18 -9 36 -2 21 8 26 7 24 -4
-3 -23 -12 -27 -69 -29 -41 -1 -53 2 -50 11 3 7 14 13 25 13 10 0 17 4 13 9
-3 6 -14 8 -25 6 -12 -2 -20 2 -20 10 0 8 6 12 14 9 11 -4 14 2 11 25 -4 30 7
42 20 21 3 -5 11 -10 16 -10 6 0 1 12 -10 26 -22 28 -28 50 -11 39 6 -3 10 1
10 10 0 11 5 15 15 11 10 -3 21 6 32 27 9 18 16 35 15 39 -1 4 5 5 13 2 8 -4
15 -1 15 5 0 6 7 8 15 5 8 -4 15 -15 15 -25z m-86 -15 c4 -10 1 -14 -6 -12
-15 5 -23 28 -10 28 5 0 13 -7 16 -16z m-445 -31 c2 -2 -3 -3 -11 -3 -9 0 -19
7 -22 16 -6 15 -4 15 11 3 10 -7 20 -15 22 -16z m-49 -3 c0 -5 -2 -10 -4 -10
-3 0 -8 5 -11 10 -3 6 -1 10 4 10 6 0 11 -4 11 -10z m-20 -20 c0 -5 -6 -10
-14 -10 -8 0 -18 5 -21 10 -3 6 3 10 14 10 12 0 21 -4 21 -10z m610 -54 c0 -3
-4 -8 -10 -11 -5 -3 -10 -1 -10 4 0 6 5 11 10 11 6 0 10 -2 10 -4z m174 -11
c-7 -17 -20 -20 -29 -6 -3 5 3 12 12 14 10 3 19 5 20 6 1 0 0 -6 -3 -14z
m-364 -20 c0 -8 -2 -15 -4 -15 -2 0 -6 7 -10 15 -3 8 -1 15 4 15 6 0 10 -7 10
-15z m225 5 c-3 -5 -10 -10 -16 -10 -5 0 -9 5 -9 10 0 6 7 10 16 10 8 0 12 -4
9 -10z m-612 -30 c3 -12 0 -20 -7 -20 -6 0 -12 9 -13 20 -1 11 2 20 6 20 5 0
11 -9 14 -20z m604 4 c-3 -3 -12 -4 -19 -1 -8 3 -5 6 6 6 11 1 17 -2 13 -5z
m-230 -10 c-3 -3 -12 -4 -19 -1 -8 3 -5 6 6 6 11 1 17 -2 13 -5z m-332 -24
c-3 -4 1 -10 7 -13 20 -7 1 -21 -31 -23 -21 -1 -31 3 -34 17 -3 10 -1 19 4 19
5 0 9 -4 9 -10 0 -19 18 -10 23 11 3 12 10 18 16 14 6 -3 9 -10 6 -15z m615
-15 c-13 -14 -25 -23 -27 -21 -8 8 22 46 36 46 10 0 7 -8 -9 -25z m-700 -17
c0 -9 5 -20 10 -23 19 -12 10 -23 -26 -30 -26 -4 -39 -2 -45 6 -4 8 -11 10
-14 7 -4 -4 3 -15 14 -25 12 -9 21 -21 21 -24 0 -12 -64 -31 -68 -20 -2 5 -9
8 -16 5 -7 -3 -18 7 -24 21 -10 22 -9 25 8 25 11 0 20 -3 20 -8 0 -4 9 -13 20
-19 16 -11 18 -10 14 2 -4 8 -10 15 -15 15 -5 0 -9 7 -9 16 0 10 -6 14 -15 10
-8 -3 -15 -2 -15 2 1 41 140 82 140 40z m398 -7 c3 -8 -1 -12 -9 -9 -7 2 -15
10 -17 17 -3 8 1 12 9 9 7 -2 15 -10 17 -17z m118 -5 c19 7 19 6 0 -12 -13
-14 -20 -15 -23 -6 -8 20 -25 13 -18 -8 9 -29 -19 -26 -33 4 -10 22 -8 25 11
28 12 2 27 0 33 -4 6 -5 20 -5 30 -2z m-308 -37 c-7 -4 -6 -9 2 -14 10 -6 9
-11 -4 -21 -22 -16 -11 -38 16 -31 15 4 18 1 13 -14 -8 -23 13 -22 31 1 15 19
40 0 47 -36 6 -33 -9 -40 -25 -12 -13 23 -48 35 -48 16 0 -5 -4 -7 -9 -4 -16
10 -41 -5 -41 -24 0 -23 16 -35 23 -18 4 8 6 7 6 -4 1 -9 -3 -19 -7 -22 -9 -5
-34 8 -33 18 1 16 -13 36 -27 36 -11 0 -10 4 6 19 12 10 19 21 15 25 -3 3 -1
6 7 6 9 0 10 3 1 13 -6 8 -8 17 -4 20 3 4 -2 10 -12 13 -11 5 -21 1 -27 -9 -5
-10 -16 -17 -24 -17 -8 0 -13 -4 -10 -9 3 -5 -9 -16 -27 -24 -29 -15 -33 -15
-39 1 -10 27 -9 32 8 32 8 0 12 5 9 10 -10 16 -23 11 -30 -11 -5 -15 -10 -18
-18 -10 -7 7 -14 5 -23 -7 -13 -16 -13 -16 -14 0 0 21 54 51 95 54 63 3 66 4
59 16 -5 8 -2 9 9 5 10 -4 23 -10 31 -13 7 -3 16 1 19 9 4 10 -1 13 -19 9 -13
-2 -24 0 -24 6 0 6 8 12 18 14 22 4 64 -15 50 -23z m172 -10 c-14 -25 -30 -16
-28 16 2 19 5 22 20 14 15 -8 16 -14 8 -30z m270 5 c0 -8 -5 -12 -10 -9 -6 4
-8 11 -5 16 9 14 15 11 15 -7z m60 -24 c12 -8 11 -10 -7 -10 -12 0 -23 -6 -26
-12 -2 -7 -8 -10 -12 -6 -4 4 -1 14 6 22 17 18 19 19 39 6z m-984 -23 c4 -4
-4 -7 -19 -7 -14 0 -29 5 -32 10 -7 12 39 9 51 -3z m124 9 c0 -3 -4 -8 -10
-11 -5 -3 -10 -1 -10 4 0 6 5 11 10 11 6 0 10 -2 10 -4z m495 -15 c7 -12 -12
-24 -25 -16 -11 7 -4 25 10 25 5 0 11 -4 15 -9z m-665 -41 c0 -5 -4 -10 -10
-10 -5 0 -10 5 -10 10 0 6 5 10 10 10 6 0 10 -4 10 -10z m75 0 c3 -5 -3 -10
-15 -10 -12 0 -18 5 -15 10 3 6 10 10 15 10 5 0 12 -4 15 -10z m155 6 c0 -3
-4 -8 -10 -11 -5 -3 -10 -1 -10 4 0 6 5 11 10 11 6 0 10 -2 10 -4z m227 -20
c-8 -16 -17 -22 -31 -18 -19 5 -19 6 2 15 12 6 22 14 22 19 0 4 4 8 9 8 5 0 4
-11 -2 -24z m-369 -13 c-16 -15 -16 -17 0 -29 15 -12 13 -13 -15 -14 -18 0
-33 -4 -33 -10 0 -5 5 -10 11 -10 5 0 8 -4 5 -9 -3 -5 1 -14 9 -21 21 -17 20
-51 -1 -43 -8 3 -13 12 -10 19 3 8 1 14 -4 14 -6 0 -10 -9 -10 -20 0 -29 -25
-25 -39 6 -10 23 -9 26 10 31 14 4 19 11 16 25 -3 10 0 24 7 31 7 7 11 18 8
26 -3 10 1 12 17 8 11 -3 24 -1 27 4 3 5 8 9 12 9 3 0 -1 -8 -10 -17z m274 -5
c-12 -12 -35 -1 -27 12 3 5 13 6 21 3 10 -4 12 -9 6 -15z m243 -18 c3 -5 2
-10 -4 -10 -5 0 -13 5 -16 10 -3 6 -2 10 4 10 5 0 13 -4 16 -10z m-165 -9 c0
-15 -32 -23 -44 -11 -8 8 -6 9 7 5 10 -4 17 -2 17 4 0 6 5 11 10 11 6 0 10 -4
10 -9z m130 -21 c-12 -8 -12 -10 -1 -10 12 0 11 -3 -1 -17 -9 -10 -13 -25 -10
-33 5 -13 3 -13 -12 0 -11 9 -14 16 -7 18 6 2 8 8 5 13 -7 12 14 39 30 39 6 0
4 -5 -4 -10z m-65 -20 c3 -5 1 -10 -4 -10 -6 0 -11 5 -11 10 0 6 2 10 4 10 3
0 8 -4 11 -10z m376 -13 c-10 -9 -11 -8 -5 6 3 10 9 15 12 12 3 -3 0 -11 -7
-18z m-281 -7 c0 -5 -2 -10 -4 -10 -3 0 -8 5 -11 10 -3 6 -1 10 4 10 6 0 11
-4 11 -10z m260 -14 c0 -3 -4 -8 -10 -11 -5 -3 -10 -1 -10 4 0 6 5 11 10 11 6
0 10 -2 10 -4z m-1010 -47 c0 -5 -4 -9 -10 -9 -5 0 -10 7 -10 16 0 8 5 12 10
9 6 -3 10 -10 10 -16z m670 1 c0 -5 -2 -10 -4 -10 -3 0 -8 5 -11 10 -3 6 -1
10 4 10 6 0 11 -4 11 -10z m-566 -63 c-8 -21 -39 -14 -39 9 0 23 27 36 38 19
4 -8 4 -20 1 -28z m-203 -70 c-10 -9 -11 -8 -5 6 3 10 9 15 12 12 3 -3 0 -11
-7 -18z m103 -11 c-3 -9 -10 -13 -15 -10 -5 3 -3 11 4 19 15 16 19 13 11 -9z
m163 -28 c-3 -8 -6 -5 -6 6 -1 11 2 17 5 13 3 -3 4 -12 1 -19z m714 -14 c2 2
10 -2 17 -10 15 -17 12 -17 -22 -4 -15 5 -26 17 -26 27 1 17 1 17 14 1 7 -10
15 -16 17 -14z m-881 -54 c0 -5 -2 -10 -4 -10 -3 0 -8 5 -11 10 -3 6 -1 10 4
10 6 0 11 -4 11 -10z"/>
<path d="M5868 7228 c9 -9 15 -9 24 0 9 9 7 12 -12 12 -19 0 -21 -3 -12 -12z"/>
<path d="M5355 5290 c-3 -5 1 -10 9 -10 9 0 16 5 16 10 0 6 -4 10 -9 10 -6 0
-13 -4 -16 -10z"/>
<path d="M3967 9293 c-4 -3 -7 -11 -7 -17 0 -6 5 -5 12 2 6 6 9 14 7 17 -3 3
-9 2 -12 -2z"/>
<path d="M3925 9237 c-10 -15 -16 -30 -13 -32 8 -9 40 33 36 47 -3 8 -11 2
-23 -15z"/>
<path d="M3876 9178 c-21 -29 -13 -35 13 -9 11 11 16 23 11 26 -5 3 -16 -5
-24 -17z"/>
<path d="M4484 8581 c3 -5 16 -11 28 -14 22 -6 22 -5 4 8 -22 17 -40 20 -32 6z"/>
<path d="M4130 8506 c0 -2 7 -6 15 -10 8 -3 15 -1 15 4 0 6 -7 10 -15 10 -8 0
-15 -2 -15 -4z"/>
<path d="M5435 8240 c-3 -5 -1 -10 4 -10 6 0 11 5 11 10 0 6 -2 10 -4 10 -3 0
-8 -4 -11 -10z"/>
<path d="M4487 7516 c3 -4 -9 -5 -27 -1 -21 5 -30 4 -26 -3 4 -7 -9 -9 -36 -6
-78 8 -149 -1 -161 -22 -9 -16 -67 -19 -67 -4 0 5 -21 2 -47 -6 -27 -8 -67
-17 -90 -19 -23 -2 -52 -10 -64 -18 -19 -14 -20 -15 -2 -19 10 -2 -13 -10 -52
-17 -109 -21 -116 -26 -63 -41 46 -14 59 -35 26 -46 -10 -3 -32 -17 -49 -31
l-31 -26 33 -14 c22 -9 36 -10 43 -3 5 5 23 10 38 10 15 0 28 5 28 10 0 15 31
12 64 -5 15 -8 38 -15 50 -15 29 0 30 30 2 31 -12 1 8 6 43 11 36 5 69 15 75
23 8 11 32 15 81 16 164 1 227 -14 320 -77 32 -21 35 -22 25 -4 -9 16 -8 20 5
20 8 0 15 -4 15 -8 0 -19 76 -87 93 -84 9 2 17 7 17 12 0 4 -35 40 -77 80 -43
39 -69 67 -58 61 11 -5 47 -19 80 -32 33 -12 90 -37 127 -56 64 -33 98 -39
100 -18 0 6 -8 15 -18 20 -38 20 -135 97 -141 111 -3 8 -15 14 -26 14 -16 0
-18 3 -9 12 7 7 12 21 12 33 0 16 2 17 10 5 8 -13 10 -13 10 1 0 9 -18 32 -40
52 -36 32 -45 33 -41 1 2 -14 -37 -13 -47 1 -4 6 -17 19 -30 29 -19 17 -22 17
-16 3 3 -9 3 -17 0 -17 -10 0 -45 33 -41 39 2 3 -7 6 -20 6 -13 0 -21 -4 -18
-9z m-130 -31 c0 -8 -4 -15 -8 -15 -11 0 -20 16 -12 24 11 11 20 7 20 -9z
m353 -79 c0 -6 -7 -1 -15 10 -8 10 -14 26 -14 34 0 16 28 -28 29 -44z m-645
-35 c-28 -11 -120 -23 -112 -14 8 7 76 20 112 21 l20 1 -20 -8z"/>
<path d="M4037 7483 c-12 -11 -8 -23 7 -23 8 0 16 7 20 15 5 15 -14 21 -27 8z"/>
<path d="M3750 7372 c-20 -7 -40 -36 -30 -42 5 -3 5 -22 1 -41 -5 -22 -4 -44
2 -55 5 -11 6 -16 2 -12 -5 5 -13 -2 -19 -15 -7 -12 -20 -22 -31 -22 -26 0
-27 44 -2 65 18 15 18 16 -3 43 -37 47 -104 31 -106 -25 -2 -24 2 -28 25 -29
23 -2 24 -2 4 -6 -13 -2 -23 -7 -23 -10 0 -5 68 -92 84 -108 6 -5 13 -32 14
-60 2 -27 7 -68 12 -90 7 -37 8 -34 9 27 0 37 6 91 12 120 12 58 58 148 75
148 18 0 47 37 35 45 -6 3 -11 19 -11 34 0 30 -20 43 -50 33z m10 -81 c0 -17
-4 -33 -10 -36 -6 -4 -10 8 -10 29 0 20 5 36 10 36 6 0 10 -13 10 -29z"/>
<path d="M4409 7234 c-12 -15 -72 -30 -193 -48 -119 -18 -180 -46 -224 -105
-44 -59 -33 -64 21 -9 29 30 64 53 103 68 73 27 134 37 134 21 0 -6 -11 -11
-25 -11 -13 0 -62 -17 -108 -38 -61 -29 -89 -48 -104 -73 -26 -40 -21 -52 14
-38 15 5 34 7 42 3 17 -8 29 -10 74 -13 29 -1 40 -31 10 -31 -9 0 -14 -3 -10
-6 3 -4 14 -3 24 2 31 13 55 13 49 -2 -4 -11 1 -13 19 -8 19 5 25 2 25 -9 0
-11 8 -15 27 -14 19 1 30 -5 38 -20 8 -16 15 -19 22 -12 7 7 13 8 17 0 4 -6
-11 -15 -36 -22 -44 -13 -78 -35 -78 -52 0 -5 11 -6 24 -3 16 4 30 0 40 -10 9
-8 16 -11 16 -5 0 5 18 9 41 9 29 0 39 -4 35 -14 -3 -8 0 -11 9 -8 8 3 11 13
8 21 -5 12 -1 14 14 9 11 -4 57 5 104 20 88 29 134 64 124 95 -4 11 1 21 11
27 16 9 15 12 -2 41 -15 25 -16 35 -7 49 6 10 9 34 8 53 -2 19 -4 37 -4 42 -1
4 -9 7 -18 7 -10 0 -27 10 -38 23 -11 13 -35 29 -52 36 -18 8 -33 19 -33 25 0
15 -109 15 -121 0z m-137 -179 c6 -31 0 -37 -22 -25 -12 6 -16 17 -13 30 7 28
30 25 35 -5z m-84 -13 c4 -14 -34 -16 -42 -3 -6 10 13 21 28 17 6 -1 12 -8 14
-14z"/>
<path d="M4705 7150 c-3 -5 -1 -10 4 -10 6 0 11 5 11 10 0 6 -2 10 -4 10 -3 0
-8 -4 -11 -10z"/>
<path d="M4770 6989 c0 -5 11 -8 25 -7 14 1 25 5 25 9 0 4 -11 7 -25 7 -14 0
-25 -4 -25 -9z"/>
<path d="M4740 6950 c0 -5 6 -10 14 -10 8 0 18 5 21 10 3 6 -3 10 -14 10 -12
0 -21 -4 -21 -10z"/>
<path d="M4800 6929 c-19 -35 -5 -44 19 -11 18 26 19 32 7 32 -8 0 -20 -9 -26
-21z"/>
<path d="M4073 6825 c-19 -21 -16 -62 5 -77 19 -14 27 -59 12 -68 -11 -7 14
-83 29 -88 6 -2 8 -8 5 -14 -6 -10 76 -93 100 -101 6 -2 -18 -7 -54 -12 l-65
-8 65 -10 c46 -7 90 -6 150 2 47 7 96 14 110 15 68 8 117 32 171 86 55 55 120
160 99 160 -6 0 -8 5 -5 10 4 6 9 8 13 6 4 -2 8 8 9 22 1 24 0 25 -11 10 -7
-10 -15 -15 -18 -12 -4 3 -5 -3 -4 -13 0 -9 -6 -18 -14 -18 -8 0 -46 -33 -84
-72 -38 -40 -77 -75 -88 -78 -10 -4 -16 -11 -12 -16 3 -5 2 -8 -3 -7 -4 1 -36
-8 -71 -21 l-63 -24 -24 23 c-13 12 -21 28 -19 35 3 7 -2 15 -10 18 -26 10
-18 25 22 37 44 15 74 39 68 55 -2 7 9 26 25 43 18 19 27 37 23 47 -8 19 -29
14 -28 -7 1 -13 -4 -13 -27 -4 -16 6 -29 14 -29 18 0 4 -11 8 -25 8 -14 0 -28
7 -31 15 -4 8 -17 15 -30 15 -14 0 -24 6 -24 15 0 9 -6 12 -15 9 -8 -3 -28 -1
-44 4 -22 8 -31 7 -35 -1 -3 -9 -5 -9 -5 1 -1 17 -53 15 -68 -3z m597 -125 c0
-5 -4 -10 -10 -10 -5 0 -10 5 -10 10 0 6 5 10 10 10 6 0 10 -4 10 -10z m-520
-10 c0 -5 -2 -10 -4 -10 -3 0 -8 5 -11 10 -3 6 -1 10 4 10 6 0 11 -4 11 -10z
m-3 -86 c-9 -9 -28 6 -21 18 4 6 10 6 17 -1 6 -6 8 -13 4 -17z m130 -40 c-3
-3 -12 -4 -19 -1 -8 3 -5 6 6 6 11 1 17 -2 13 -5z m13 -18 c0 -3 -4 -8 -10
-11 -5 -3 -10 -1 -10 4 0 6 5 11 10 11 6 0 10 -2 10 -4z"/>
<path d="M4343 6302 c-18 -20 -48 -55 -68 -77 -19 -22 -36 -43 -36 -47 -5 -28
-27 -75 -36 -79 -8 -4 -53 -92 -53 -104 0 -17 48 0 84 30 24 19 48 35 53 35 6
0 23 20 39 45 15 25 32 45 37 45 4 0 6 4 3 8 -3 5 1 20 8 34 8 14 21 49 31 78
15 44 15 54 4 61 -23 14 -32 10 -66 -29z"/>
<path d="M3333 6302 c-43 -65 -54 -102 -18 -62 10 11 24 20 31 20 13 0 34 30
34 48 0 23 -30 19 -47 -6z"/>
<path d="M3402 6238 c5 -15 48 -24 48 -10 0 10 -23 22 -42 22 -5 0 -8 -6 -6
-12z"/>
<path d="M4640 6182 c-44 -6 -47 -22 -4 -22 45 0 77 15 47 21 -10 3 -29 3 -43
1z"/>
<path d="M5840 6095 c0 -9 6 -12 15 -9 8 4 15 1 15 -5 0 -6 5 -11 11 -11 18 0
4 23 -19 31 -16 6 -22 5 -22 -6z"/>
<path d="M4638 6053 c6 -2 18 -2 25 0 6 3 1 5 -13 5 -14 0 -19 -2 -12 -5z"/>
<path d="M4669 6042 c-22 -14 -24 -19 -13 -30 12 -10 14 -10 14 3 0 9 12 18
30 21 16 4 27 10 24 15 -8 13 -25 10 -55 -9z"/>
<path d="M6682 6029 c2 -6 8 -10 13 -10 5 0 11 4 13 10 2 6 -4 11 -13 11 -9 0
-15 -5 -13 -11z"/>
<path d="M4575 6010 c-3 -5 3 -10 15 -10 12 0 18 5 15 10 -3 6 -10 10 -15 10
-5 0 -12 -4 -15 -10z"/>
<path d="M6417 5991 c3 -12 9 -21 14 -21 14 0 11 16 -5 29 -12 10 -13 8 -9 -8z"/>
<path d="M4458 5983 c7 -3 16 -2 19 1 4 3 -2 6 -13 5 -11 0 -14 -3 -6 -6z"/>
<path d="M4486 5975 c-3 -9 0 -15 9 -15 8 0 15 7 15 15 0 8 -4 15 -9 15 -5 0
-11 -7 -15 -15z"/>
<path d="M4585 5980 c-8 -13 3 -30 20 -30 23 0 25 15 5 28 -12 7 -21 8 -25 2z"/>
<path d="M4257 5963 c-4 -3 -7 -11 -7 -17 0 -6 5 -5 12 2 6 6 9 14 7 17 -3 3
-9 2 -12 -2z"/>
<path d="M4313 5935 c-25 -29 -39 -65 -25 -65 6 0 13 7 16 16 3 8 11 12 16 9
6 -4 18 -1 27 7 15 12 15 11 3 -12 -12 -23 -12 -24 3 -11 14 11 17 11 17 1 0
-8 3 -10 6 -7 4 4 -1 18 -11 33 -13 20 -19 23 -26 13 -4 -7 -11 -10 -15 -6 -4
4 1 16 11 27 10 11 14 20 9 20 -5 0 -19 -12 -31 -25z"/>
<path d="M3550 5931 c10 -21 30 -37 30 -26 0 14 -21 45 -31 45 -6 0 -6 -7 1
-19z"/>
<path d="M4680 5940 c0 -6 -4 -8 -10 -5 -5 3 -10 1 -10 -4 0 -6 -7 -11 -15
-11 -17 0 -10 -26 10 -33 9 -4 11 1 8 14 -3 10 0 19 6 19 6 0 11 -4 11 -10 0
-5 5 -10 10 -10 6 0 10 9 10 19 0 11 -4 23 -10 26 -5 3 -10 1 -10 -5z"/>
<path d="M4375 5930 c-3 -5 -1 -10 4 -10 6 0 11 5 11 10 0 6 -2 10 -4 10 -3 0
-8 -4 -11 -10z"/>
<path d="M4239 5913 c-13 -9 -25 -17 -26 -18 -1 0 0 -10 3 -22 4 -14 11 -19
25 -16 20 6 28 -20 9 -32 -13 -8 -13 -25 0 -25 5 0 13 12 16 27 6 20 2 31 -16
45 -16 13 -18 18 -7 18 13 0 32 28 24 36 -2 2 -14 -4 -28 -13z"/>
<path d="M4410 5915 c-10 -12 -9 -15 4 -15 10 0 15 4 11 9 -3 5 5 12 17 14 22
4 22 4 2 6 -12 0 -27 -6 -34 -14z"/>
<path d="M6463 5823 c-32 -72 -89 -239 -97 -287 -3 -16 -11 -36 -19 -45 -17
-19 -39 -82 -32 -89 2 -3 9 6 14 19 l10 24 0 -26 c1 -14 -3 -29 -8 -35 -5 -5
-11 -28 -14 -52 -5 -41 -4 -43 12 -28 10 9 23 16 30 16 7 0 11 6 8 14 -3 8 -1
17 6 20 7 2 4 5 -5 5 -10 1 -18 4 -18 7 0 6 33 51 63 85 21 24 32 110 15 121
-9 6 -9 11 -2 14 6 3 9 15 7 27 -3 14 8 38 30 67 20 25 44 61 55 80 13 24 25
34 38 32 69 -12 137 -13 147 -3 8 8 6 11 -10 11 -11 0 -34 7 -49 15 -16 8 -36
15 -45 15 -9 0 -33 14 -54 30 -21 17 -41 30 -45 30 -4 0 -21 -30 -37 -67z"/>
<path d="M4380 5839 c0 -5 5 -7 10 -4 6 3 10 8 10 11 0 2 -4 4 -10 4 -5 0 -10
-5 -10 -11z"/>
<path d="M4387 5813 c-12 -12 -7 -22 8 -17 8 4 15 10 15 15 0 11 -14 12 -23 2z"/>
<path d="M6100 5611 c0 -12 6 -21 15 -21 8 0 15 4 15 9 0 5 -7 14 -15 21 -13
10 -15 9 -15 -9z"/>
<path d="M5955 5610 c-3 -5 -1 -10 4 -10 6 0 11 5 11 10 0 6 -2 10 -4 10 -3 0
-8 -4 -11 -10z"/>
<path d="M6097 5573 c-4 -3 -7 -16 -6 -27 0 -19 1 -19 10 3 10 24 8 36 -4 24z"/>
<path d="M6245 5440 c-3 -5 -1 -10 4 -10 6 0 11 5 11 10 0 6 -2 10 -4 10 -3 0
-8 -4 -11 -10z"/>
<path d="M6266 5327 c-3 -15 -13 -27 -21 -27 -10 0 -14 -8 -12 -22 5 -30 24
-34 32 -6 4 13 12 26 17 29 5 3 5 15 0 29 l-9 24 -7 -27z"/>
<path d="M6201 5335 c1 -19 18 -51 18 -35 0 8 -4 22 -9 30 -5 8 -9 11 -9 5z"/>
<path d="M6165 5221 c-3 -5 -1 -12 5 -16 5 -3 10 1 10 9 0 18 -6 21 -15 7z"/>
<path d="M6130 5193 c0 -25 1 -26 16 -11 9 9 13 21 10 27 -13 20 -26 11 -26
-16z"/>
<path d="M6175 5170 c-4 -6 -11 -8 -16 -5 -5 4 -9 2 -9 -2 0 -5 -10 -13 -22
-18 -27 -12 -31 -47 -5 -51 9 -1 17 3 17 10 0 15 46 57 54 49 3 -4 6 -1 6 5 0
16 -17 24 -25 12z"/>
<path d="M4528 4933 c7 -3 16 -2 19 1 4 3 -2 6 -13 5 -11 0 -14 -3 -6 -6z"/>
<path d="M4558 4863 c-17 -4 -34 -33 -19 -33 4 0 16 9 26 20 10 11 16 19 14
19 -2 -1 -11 -3 -21 -6z"/>
<path d="M4235 4830 c-4 -6 3 -10 14 -10 25 0 27 6 6 13 -8 4 -17 2 -20 -3z"/>
<path d="M4510 4820 c0 -5 5 -10 11 -10 5 0 7 5 4 10 -3 6 -8 10 -11 10 -2 0
-4 -4 -4 -10z"/>
<path d="M4195 4810 c-3 -5 1 -10 10 -10 9 0 13 5 10 10 -3 6 -8 10 -10 10 -2
0 -7 -4 -10 -10z"/>
<path d="M4268 4763 c7 -3 16 -2 19 1 4 3 -2 6 -13 5 -11 0 -14 -3 -6 -6z"/>
<path d="M4408 4743 c7 -3 16 -2 19 1 4 3 -2 6 -13 5 -11 0 -14 -3 -6 -6z"/>
<path d="M4670 4709 c-8 -5 -10 -9 -5 -9 6 0 3 -5 -5 -11 -10 -7 -11 -12 -4
-15 8 -3 10 -21 8 -47 -4 -44 0 -42 10 5 5 20 10 26 23 21 12 -5 14 -3 7 8 -4
8 -7 21 -6 31 4 21 -10 29 -28 17z"/>
<path d="M4710 4679 c0 -5 5 -7 10 -4 6 3 10 8 10 11 0 2 -4 4 -10 4 -5 0 -10
-5 -10 -11z"/>
<path d="M4496 4663 c-6 -14 -5 -15 5 -6 7 7 10 15 7 18 -3 3 -9 -2 -12 -12z"/>
<path d="M5832 4650 c-11 -17 -10 -20 8 -20 21 0 25 7 12 27 -6 9 -11 7 -20
-7z"/>
<path d="M5825 4613 c-32 -8 -39 -20 -21 -38 17 -18 52 -13 41 5 -4 6 -1 17 5
25 13 15 10 16 -25 8z"/>
<path d="M4515 4590 c-3 -5 1 -10 10 -10 9 0 13 5 10 10 -3 6 -8 10 -10 10 -2
0 -7 -4 -10 -10z"/>
<path d="M4380 4580 c-9 -6 -10 -10 -3 -10 6 0 15 5 18 10 8 12 4 12 -15 0z"/>
<path d="M4556 4552 c-3 -5 1 -9 9 -9 8 0 12 4 9 9 -3 4 -7 8 -9 8 -2 0 -6 -4
-9 -8z"/>
<path d="M4644 4508 c-6 -9 -6 -9 23 -12 12 -2 19 2 17 9 -6 13 -32 16 -40 3z"/>
<path d="M5755 4270 c3 -5 12 -7 20 -3 21 7 19 13 -6 13 -11 0 -18 -4 -14 -10z"/>
<path d="M5215 4150 c-3 -5 -2 -10 4 -10 5 0 13 5 16 10 3 6 2 10 -4 10 -5 0
-13 -4 -16 -10z"/>
<path d="M6563 3866 c37 -35 67 -70 67 -77 0 -17 -103 -129 -119 -129 -6 0
-11 -4 -11 -9 0 -21 -91 -108 -179 -171 -109 -77 -477 -268 -646 -335 -105
-41 -162 -57 -510 -139 -293 -69 -441 -85 -615 -68 -137 15 -305 48 -355 72
-22 10 -65 30 -95 43 -30 13 -76 45 -102 70 -57 58 -71 61 -28 7 18 -23 30
-43 28 -46 -8 -7 -161 119 -189 157 -58 77 -57 165 3 264 17 28 33 68 36 90
l5 40 -42 -50 c-66 -77 -98 -101 -206 -153 -158 -77 -487 -210 -570 -232 -26
-6 -69 -22 -140 -50 -198 -78 -477 -164 -665 -206 -159 -35 -409 -142 -552
-236 -116 -77 -170 -108 -263 -149 -69 -30 -85 -43 -115 -86 -19 -28 -76 -98
-125 -155 -114 -131 -138 -162 -208 -274 -70 -112 -91 -159 -156 -354 -29 -85
-78 -229 -110 -320 -86 -247 -110 -321 -117 -365 -4 -22 -10 -44 -14 -50 -4
-5 -15 -39 -24 -75 -10 -36 -31 -117 -47 -180 -70 -267 -112 -431 -134 -520
-12 -52 -28 -108 -34 -123 -6 -16 -11 -35 -11 -43 0 -12 642 -14 4841 -14
l4841 0 -5 233 c-3 173 -8 248 -21 297 -29 111 -69 284 -87 375 -14 66 -37
176 -54 250 -8 33 -22 96 -31 140 -19 93 -63 282 -104 445 -15 63 -38 162 -50
219 -23 112 -20 107 -150 279 -41 55 -94 126 -117 159 -23 32 -53 69 -67 82
-14 13 -28 36 -31 51 -8 35 -29 54 -85 76 -25 9 -61 29 -80 44 -42 32 -158
108 -424 277 -58 37 -238 127 -276 138 -14 4 -75 27 -137 51 -62 24 -118 44
-126 44 -46 0 -246 120 -432 259 -149 112 -178 124 -412 175 -213 46 -223 50
-313 117 -19 15 -62 36 -95 48 -34 12 -88 42 -120 67 -33 24 -78 49 -100 55
-22 5 -67 19 -99 30 -33 10 -67 19 -75 19 -9 0 13 -28 52 -64z"/>
<path d="M5025 3720 c3 -5 19 -10 36 -10 16 0 29 5 29 10 0 6 -16 10 -36 10
-21 0 -33 -4 -29 -10z"/>
<path d="M4964 3705 c-9 -23 5 -36 26 -25 24 13 30 13 30 0 0 -13 -49 -34 -72
-31 -12 2 -16 -3 -12 -13 4 -10 -2 -15 -23 -18 -15 -2 -28 -8 -28 -15 0 -7 -8
-22 -17 -33 -10 -11 -18 -24 -18 -29 0 -5 -8 -12 -17 -15 -12 -5 -13 -10 -5
-18 7 -7 3 -17 -16 -35 -18 -16 -21 -23 -10 -19 10 3 20 1 24 -5 3 -5 14 -7
25 -4 11 4 19 2 19 -5 0 -24 70 7 126 55 39 33 53 42 92 53 24 7 46 20 49 28
3 8 11 14 18 14 15 0 14 16 -2 44 -7 13 -16 17 -28 12 -13 -5 -16 -2 -11 10 4
11 2 15 -7 11 -7 -3 -21 1 -32 9 -10 8 -25 14 -33 14 -7 0 -20 7 -28 15 -19
19 -43 19 -50 0z m116 -54 c0 -30 -12 -40 -36 -29 -36 17 -32 32 10 36 14 1
26 -2 26 -7z m-57 -62 c-28 -12 -33 -10 -33 9 0 29 11 34 32 15 19 -17 19 -18
1 -24z m96 12 c-15 -5 -22 6 -14 19 6 9 10 9 16 -1 5 -8 4 -15 -2 -18z m-149
-12 c0 -6 -4 -7 -10 -4 -5 3 -10 11 -10 16 0 6 5 7 10 4 6 -3 10 -11 10 -16z"/>
</g>
</svg>
